<?xml version="1.0" encoding="UTF-8"?>
<svg id="Layer_2" data-name="Layer 2" xmlns="http://www.w3.org/2000/svg" viewBox="0 0 512 512">
  <defs>
    <style>
      .cls-1 {
        fill: #231f20;
      }

      .cls-2 {
        fill: #fff;
      }

      .cls-3 {
        fill: #a2d9d6;
      }
    </style>
  </defs>
  <g id="Artboard_1" data-name="Artboard 1">
    <circle class="cls-2" cx="256" cy="256" r="256"/>
    <g>
      <path class="cls-1" d="M47.1,326.75v-12.64l38.29-41.45c7.43-8.05,13.41-14.68,17.94-19.89,4.52-5.2,7.87-9.85,10.04-13.94,2.17-4.09,3.25-8.43,3.25-13.01,0-7.56-2.23-13.35-6.69-17.38-4.46-4.03-10.35-6.04-17.66-6.04s-13.76,2.11-18.96,6.32c-5.2,4.21-8.8,10.22-10.78,18.03l-16.54-4.27c1.61-7.43,4.58-13.88,8.92-19.33,4.34-5.45,9.69-9.67,16.08-12.64,6.38-2.97,13.41-4.46,21.1-4.46,8.55,0,16.01,1.64,22.4,4.93,6.38,3.29,11.4,7.84,15.06,13.66,3.65,5.83,5.48,12.58,5.48,20.26,0,5.08-1.05,10.04-3.16,14.87-2.11,4.83-5.2,9.94-9.29,15.33s-9.42,11.62-15.99,18.68l-34.2,37.17h65.61v15.8H47.1Z"/>
      <path class="cls-1" d="M460.29,263.55c-3.88-5.24-8.96-9.32-15.19-12.28,3.99-2.54,7.35-5.81,10.08-9.84,3.78-5.58,5.67-11.9,5.67-18.96s-1.77-13.35-5.3-18.87c-3.53-5.51-8.34-9.82-14.41-12.92-6.07-3.09-13.01-4.65-20.82-4.65s-14.78,1.61-20.91,4.83c-6.13,3.22-11,7.56-14.59,13.01-3.6,5.45-5.39,11.65-5.39,18.59s1.86,12.92,5.58,18.68c2.69,4.16,6.13,7.52,10.3,10.1-6.1,2.88-11.1,6.91-14.95,12.11-4.96,6.69-7.43,14.5-7.43,23.42,0,7.93,1.98,15.09,5.95,21.47,3.96,6.38,9.51,11.43,16.64,15.15,7.12,3.72,15.39,5.58,24.81,5.58s17.5-1.86,24.63-5.58c7.12-3.72,12.7-8.77,16.73-15.15,4.03-6.38,6.04-13.54,6.04-21.47,0-8.8-2.48-16.54-7.43-23.23ZM400.81,211.98c1.98-3.16,4.65-5.64,7.99-7.43,3.35-1.8,7.19-2.7,11.52-2.7s7.96.9,11.24,2.7c3.28,1.8,5.92,4.27,7.9,7.43,1.98,3.16,2.98,6.85,2.98,11.06s-.99,7.71-2.98,10.87c-1.98,3.16-4.62,5.67-7.9,7.53-3.28,1.86-7.03,2.79-11.24,2.79s-8.18-.93-11.52-2.79-6.01-4.37-7.99-7.53c-1.98-3.16-2.97-6.78-2.97-10.87s.99-7.9,2.97-11.06ZM445.6,300.45c-2.48,4.03-5.89,7.16-10.22,9.39-4.34,2.23-9.36,3.35-15.05,3.35s-10.94-1.12-15.33-3.35c-4.4-2.23-7.78-5.36-10.13-9.39-2.35-4.02-3.53-8.64-3.53-13.85s1.18-10.01,3.53-14.03c2.35-4.03,5.73-7.12,10.13-9.29,4.4-2.17,9.51-3.25,15.33-3.25s10.72,1.09,15.05,3.25c4.34,2.17,7.74,5.27,10.22,9.29,2.48,4.03,3.72,8.71,3.72,14.03s-1.24,9.82-3.72,13.85Z"/>
      <path class="cls-1" d="M261.18,183.57c-40.04,0-72.5,32.46-72.5,72.5s32.46,72.5,72.5,72.5,72.5-32.46,72.5-72.5-32.46-72.5-72.5-72.5ZM261.18,310.1c-29.84,0-54.02-24.19-54.02-54.02s24.19-54.02,54.02-54.02,54.02,24.19,54.02,54.02-24.19,54.02-54.02,54.02Z"/>
      <path class="cls-3" d="M261.18,366.94c-61.17,0-110.95-49.77-110.95-110.95s49.77-110.95,110.95-110.95c29.63,0,57.5,11.54,78.45,32.5,3.63,3.63,3.63,9.51,0,13.14-3.63,3.63-9.51,3.63-13.14,0-17.44-17.44-40.64-27.05-65.31-27.05-50.93,0-92.36,41.43-92.36,92.36s41.43,92.36,92.36,92.36c24.67,0,47.86-9.61,65.31-27.05,3.63-3.63,9.51-3.63,13.14,0,3.63,3.63,3.63,9.51,0,13.14-20.95,20.96-48.82,32.5-78.45,32.5Z"/>
    </g>
  </g>
</svg>